<svg xmlns="http://www.w3.org/2000/svg"  viewBox="0 0 50 50" width="50px" height="50px"><path d="M37,4H13C7.49,4,3,8.49,3,14v24c0,5.51,4.49,10,10,10h24c5.51,0,10-4.49,10-10V14C47,8.49,42.51,4,37,4z M8,26.5	c0,0.552-0.447,1-1,1s-1-0.448-1-1v-1c0-0.552,0.447-1,1-1s1,0.448,1,1V26.5z M11,28c0,0.552-0.447,1-1,1s-1-0.448-1-1v-4	c0-0.552,0.447-1,1-1s1,0.448,1,1V28z M14,31c0,0.552-0.447,1-1,1s-1-0.448-1-1V21c0-0.552,0.447-1,1-1s1,0.448,1,1V31z M17,35	c0,0.552-0.447,1-1,1s-1-0.448-1-1V17c0-0.552,0.447-1,1-1s1,0.448,1,1V35z M20,39c0,0.552-0.447,1-1,1s-1-0.448-1-1V13	c0-0.552,0.447-1,1-1s1,0.448,1,1V39z M23,36c0,0.552-0.447,1-1,1s-1-0.448-1-1V16c0-0.552,0.447-1,1-1s1,0.448,1,1V36z M25,33	c-0.553,0-1-0.448-1-1V20c0-0.552,0.447-1,1-1s1,0.448,1,1v12C26,32.552,25.553,33,25,33z M28,44c-1.105,0-2-0.895-2-2	c0-0.738,0.405-1.376,1-1.723V11.723c-0.595-0.346-1-0.984-1-1.723c0-1.105,0.895-2,2-2s2,0.895,2,2c0,0.738-0.405,1.376-1,1.723	v28.555c0.595,0.346,1,0.984,1,1.723C30,43.105,29.105,44,28,44z M32,31c0,0.552-0.447,1-1,1s-1-0.448-1-1V21c0-0.552,0.447-1,1-1	s1,0.448,1,1V31z M35,28c0,0.552-0.447,1-1,1s-1-0.448-1-1v-4c0-0.552,0.447-1,1-1s1,0.448,1,1V28z M38,26.5c0,0.552-0.447,1-1,1	s-1-0.448-1-1v-1c0-0.552,0.447-1,1-1s1,0.448,1,1V26.5z M41,27c0,0.552-0.447,1-1,1s-1-0.448-1-1v-2c0-0.552,0.447-1,1-1	s1,0.448,1,1V27z M44,26.5c0,0.552-0.447,1-1,1s-1-0.448-1-1v-1c0-0.552,0.447-1,1-1s1,0.448,1,1V26.5z"/></svg>